<svg width="30" height="30" viewBox="0 0 30 30" fill="none" xmlns="http://www.w3.org/2000/svg">
<path d="M12.5 12.5L15 10V20" stroke="#F7FAFC" stroke-width="2.5" stroke-linecap="round" stroke-linejoin="round"/>
<path d="M6.25009 9C6.25009 8.27065 6.53982 7.57118 7.05554 7.05545C7.57127 6.53973 8.27074 6.25 9.00009 6.25H10.2501C10.9762 6.24958 11.6727 5.962 12.1876 5.45L13.0626 4.575C13.3181 4.318 13.622 4.11405 13.9566 3.97488C14.2913 3.83571 14.6502 3.76407 15.0126 3.76407C15.375 3.76407 15.7339 3.83571 16.0685 3.97488C16.4032 4.11405 16.707 4.318 16.9626 4.575L17.8376 5.45C18.3526 5.9625 19.0501 6.25 19.7751 6.25H21.0251C21.7544 6.25 22.4539 6.53973 22.9696 7.05545C23.4854 7.57118 23.7751 8.27065 23.7751 9V10.25C23.7751 10.975 24.0626 11.6725 24.5751 12.1875L25.4501 13.0625C25.7071 13.3181 25.911 13.6219 26.0502 13.9565C26.1894 14.2912 26.261 14.6501 26.261 15.0125C26.261 15.3749 26.1894 15.7338 26.0502 16.0684C25.911 16.4031 25.7071 16.7069 25.4501 16.9625L24.5751 17.8375C24.0631 18.3524 23.7755 19.0489 23.7751 19.775V21.025C23.7751 21.7543 23.4854 22.4538 22.9696 22.9695C22.4539 23.4853 21.7544 23.775 21.0251 23.775H19.7751C19.049 23.7754 18.3525 24.063 17.8376 24.575L16.9626 25.45C16.707 25.707 16.4032 25.9109 16.0685 26.0501C15.7339 26.1893 15.375 26.2609 15.0126 26.2609C14.6502 26.2609 14.2913 26.1893 13.9566 26.0501C13.622 25.9109 13.3181 25.707 13.0626 25.45L12.1876 24.575C11.6727 24.063 10.9762 23.7754 10.2501 23.775H9.00009C8.27074 23.775 7.57127 23.4853 7.05554 22.9695C6.53982 22.4538 6.25009 21.7543 6.25009 21.025V19.775C6.24967 19.0489 5.96209 18.3524 5.45009 17.8375L4.57509 16.9625C4.31809 16.7069 4.11414 16.4031 3.97497 16.0684C3.8358 15.7338 3.76416 15.3749 3.76416 15.0125C3.76416 14.6501 3.8358 14.2912 3.97497 13.9565C4.11414 13.6219 4.31809 13.3181 4.57509 13.0625L5.45009 12.1875C5.96209 11.6726 6.24967 10.9761 6.25009 10.25V9Z" stroke="#F7FAFC" stroke-width="2.5" stroke-linecap="round" stroke-linejoin="round"/>
</svg>
