<svg width="30" height="30" viewBox="0 0 30 30" fill="none" xmlns="http://www.w3.org/2000/svg">
<path fill-rule="evenodd" clip-rule="evenodd" d="M13.75 2.5C11.953 2.50019 10.1821 2.93088 8.58572 3.75599C6.98932 4.58111 5.61381 5.77665 4.57433 7.24253C3.53485 8.70841 2.86165 10.402 2.6111 12.1814C2.36055 13.9609 2.53992 15.7745 3.13421 17.4705C3.7285 19.1664 4.72042 20.6952 6.02691 21.9291C7.33341 23.1629 8.91647 24.0659 10.6436 24.5623C12.3707 25.0587 14.1916 25.1341 15.9538 24.7823C17.7161 24.4304 19.3684 23.6616 20.7725 22.54L25.3662 27.1338C25.602 27.3614 25.9178 27.4874 26.2455 27.4846C26.5732 27.4817 26.8868 27.3503 27.1185 27.1185C27.3503 26.8868 27.4817 26.5732 27.4846 26.2455C27.4874 25.9178 27.3614 25.602 27.1337 25.3662L22.54 20.7725C23.8625 19.1173 24.6907 17.1224 24.9294 15.0172C25.168 12.9121 24.8074 10.7823 23.8889 8.87312C22.9705 6.96391 21.5316 5.35285 19.7379 4.22537C17.9442 3.09789 15.8686 2.49982 13.75 2.5ZM6.25 13.75C6.25 12.7651 6.44399 11.7898 6.8209 10.8799C7.19781 9.96993 7.75026 9.14314 8.4467 8.4467C9.14314 7.75026 9.96993 7.19781 10.8799 6.8209C11.7898 6.44399 12.7651 6.25 13.75 6.25C14.7349 6.25 15.7102 6.44399 16.6201 6.8209C17.5301 7.19781 18.3569 7.75026 19.0533 8.4467C19.7497 9.14314 20.3022 9.96993 20.6791 10.8799C21.056 11.7898 21.25 12.7651 21.25 13.75C21.25 15.7391 20.4598 17.6468 19.0533 19.0533C17.6468 20.4598 15.7391 21.25 13.75 21.25C11.7609 21.25 9.85322 20.4598 8.4467 19.0533C7.04017 17.6468 6.25 15.7391 6.25 13.75Z" fill="#F7FAFC"/>
</svg>
