<svg width="30" height="28" viewBox="0 0 30 28" fill="none" xmlns="http://www.w3.org/2000/svg">
<path d="M11.9314 8.28067H16.5117C16.9166 8.28067 17.3049 8.42892 17.5913 8.6928C17.8776 8.95668 18.0384 9.31457 18.0384 9.68775V12.5019C18.0384 12.8751 17.8776 13.233 17.5913 13.4969C17.3049 13.7608 16.9166 13.909 16.5117 13.909H13.4581C13.0532 13.909 12.6649 14.0572 12.3786 14.3211C12.0922 14.585 11.9314 14.9429 11.9314 15.3161V18.1303C11.9314 18.5034 12.0922 18.8613 12.3786 19.1252C12.6649 19.3891 13.0532 19.5373 13.4581 19.5373H18.0384" stroke="#F7FAFC" stroke-width="2.5" stroke-linecap="round" stroke-linejoin="round"/>
<path d="M4.29744 7.155C4.29744 6.334 4.65132 5.54663 5.28123 4.96609C5.91114 4.38556 6.76549 4.05942 7.65632 4.05942H9.18308C10.07 4.05895 10.9207 3.73523 11.5496 3.15889L12.6183 2.17393C12.9304 1.88463 13.3016 1.65506 13.7103 1.4984C14.1191 1.34174 14.5574 1.26109 15.0001 1.26109C15.4427 1.26109 15.8811 1.34174 16.2898 1.4984C16.6985 1.65506 17.0697 1.88463 17.3818 2.17393L18.4505 3.15889C19.0796 3.73579 19.9315 4.05942 20.817 4.05942H22.3438C23.2346 4.05942 24.089 4.38556 24.7189 4.96609C25.3488 5.54663 25.7027 6.334 25.7027 7.155V8.56208C25.7027 9.37819 26.0538 10.1633 26.6798 10.7431L27.7485 11.728C28.0624 12.0157 28.3115 12.3577 28.4815 12.7344C28.6515 13.1111 28.739 13.5151 28.739 13.9231C28.739 14.3311 28.6515 14.735 28.4815 15.1117C28.3115 15.4884 28.0624 15.8304 27.7485 16.1181L26.6798 17.1031C26.0544 17.6827 25.7032 18.4667 25.7027 19.2841V20.6911C25.7027 21.5121 25.3488 22.2995 24.7189 22.88C24.089 23.4606 23.2346 23.7867 22.3438 23.7867H20.817C19.9301 23.7872 19.0794 24.1109 18.4505 24.6873L17.3818 25.6722C17.0697 25.9615 16.6985 26.1911 16.2898 26.3477C15.8811 26.5044 15.4427 26.585 15.0001 26.585C14.5574 26.585 14.1191 26.5044 13.7103 26.3477C13.3016 26.1911 12.9304 25.9615 12.6183 25.6722L11.5496 24.6873C10.9207 24.1109 10.07 23.7872 9.18308 23.7867H7.65632C6.76549 23.7867 5.91114 23.4606 5.28123 22.88C4.65132 22.2995 4.29744 21.5121 4.29744 20.6911V19.2841C4.29693 18.4667 3.94567 17.6827 3.32031 17.1031L2.25157 16.1181C1.93767 15.8304 1.68856 15.4884 1.51858 15.1117C1.3486 14.735 1.26109 14.3311 1.26109 13.9231C1.26109 13.5151 1.3486 13.1111 1.51858 12.7344C1.68856 12.3577 1.93767 12.0157 2.25157 11.728L3.32031 10.7431C3.94567 10.1635 4.29693 9.37946 4.29744 8.56208V7.155Z" stroke="#F7FAFC" stroke-width="2.5" stroke-linecap="round" stroke-linejoin="round"/>
</svg>
